<svg width="99" height="48" viewBox="0 0 99 48" fill="none" xmlns="http://www.w3.org/2000/svg">
<path d="M15.8958 36.4312L13.101 43.3479C12.907 43.936 13.6056 44.3268 13.955 43.6214L16.6721 36.7829C19.8551 40.2627 23.7755 41.0052 26.9972 39.5574C31.3835 37.371 33.0914 31.5094 32.8973 27.717C32.8615 27.0165 32.4315 26.6131 31.2282 26.701C27.6298 26.9637 26.0162 26.0448 23.465 23.5357C26.2318 24.7465 27.5774 25.1755 29.5979 25.3724C32.7421 25.6787 33.9044 24.1353 33.9065 22.0508C33.6793 16.7551 32.8973 15.1752 31.0341 15.6031C28.74 16.2563 27.4972 16.0845 25.367 14.7043C26.8224 14.6694 27.7088 14.5909 29.4427 14.0009C30.3355 13.6511 30.6638 13.0342 30.2578 12.1643C28.9999 9.35665 28.3889 7.71317 27.463 4.66145C27.2302 3.88185 26.3011 3.77558 25.3281 4.42698C21.3301 7.24054 19.9327 8.27186 18.7682 8.95994C17.0991 9.89779 15.0807 11.3046 14.4208 12.3206C13.2951 14.0009 15.003 15.8766 18.2248 16.9317C16.284 17.7914 15.2183 17.2967 12.4799 14.7043C12.0142 14.3526 11.3543 14.4698 10.6168 14.7043C9.56875 15.056 7.70557 16.8145 7.1233 19.12C6.50227 22.5197 9.49112 22.2462 13.3339 23.6921C12.2471 24.9816 9.72402 24.7081 6.69632 22.9496C6.30819 22.7542 5.72594 22.8486 5.4542 23.145C4.52264 24.161 3.28052 27.3653 4.52261 30.257C6.57987 34.282 11.0437 37.4863 15.8958 36.4312Z" fill="#0F9D58" stroke="#0F9D58" stroke-opacity="0.3" stroke-width="8"/>
<path d="M45.5708 22V7.1H48.2908V13.6H54.6308V7.1H57.3708V22H54.6308V16H48.2908V22H45.5708ZM62.7187 22.24C61.9587 22.24 61.2987 22.1133 60.7387 21.86C60.1787 21.6067 59.7454 21.2467 59.4387 20.78C59.1321 20.3 58.9787 19.7467 58.9787 19.12C58.9787 18.52 59.1121 17.9867 59.3787 17.52C59.6454 17.04 60.0587 16.64 60.6187 16.32C61.1787 16 61.8854 15.7733 62.7387 15.64L66.2987 15.06V17.06L63.2387 17.58C62.7187 17.6733 62.3321 17.84 62.0787 18.08C61.8254 18.32 61.6987 18.6333 61.6987 19.02C61.6987 19.3933 61.8387 19.6933 62.1187 19.92C62.4121 20.1333 62.7721 20.24 63.1987 20.24C63.7454 20.24 64.2254 20.1267 64.6387 19.9C65.0654 19.66 65.3921 19.3333 65.6187 18.92C65.8587 18.5067 65.9787 18.0533 65.9787 17.56V14.76C65.9787 14.2933 65.7921 13.9067 65.4187 13.6C65.0587 13.28 64.5787 13.12 63.9787 13.12C63.4187 13.12 62.9187 13.2733 62.4787 13.58C62.0521 13.8733 61.7387 14.2667 61.5387 14.76L59.3987 13.72C59.6121 13.1467 59.9454 12.6533 60.3987 12.24C60.8654 11.8133 61.4121 11.48 62.0387 11.24C62.6654 11 63.3454 10.88 64.0787 10.88C64.9721 10.88 65.7587 11.0467 66.4387 11.38C67.1187 11.7 67.6454 12.1533 68.0187 12.74C68.4054 13.3133 68.5987 13.9867 68.5987 14.76V22H66.1187V20.14L66.6787 20.1C66.3987 20.5667 66.0654 20.96 65.6787 21.28C65.2921 21.5867 64.8521 21.8267 64.3587 22C63.8654 22.16 63.3187 22.24 62.7187 22.24ZM70.4203 22V11.12H72.8803V13.54L72.6803 13.18C72.9336 12.3667 73.327 11.8 73.8603 11.48C74.407 11.16 75.0603 11 75.8203 11H76.4603V13.32H75.5203C74.7736 13.32 74.1736 13.5533 73.7203 14.02C73.267 14.4733 73.0403 15.1133 73.0403 15.94V22H70.4203ZM80.6008 22.24C79.8408 22.24 79.1808 22.1133 78.6208 21.86C78.0608 21.6067 77.6274 21.2467 77.3208 20.78C77.0141 20.3 76.8608 19.7467 76.8608 19.12C76.8608 18.52 76.9941 17.9867 77.2608 17.52C77.5274 17.04 77.9408 16.64 78.5008 16.32C79.0608 16 79.7674 15.7733 80.6208 15.64L84.1808 15.06V17.06L81.1208 17.58C80.6008 17.6733 80.2141 17.84 79.9608 18.08C79.7074 18.32 79.5808 18.6333 79.5808 19.02C79.5808 19.3933 79.7208 19.6933 80.0008 19.92C80.2941 20.1333 80.6541 20.24 81.0808 20.24C81.6274 20.24 82.1074 20.1267 82.5208 19.9C82.9474 19.66 83.2741 19.3333 83.5008 18.92C83.7408 18.5067 83.8608 18.0533 83.8608 17.56V14.76C83.8608 14.2933 83.6741 13.9067 83.3008 13.6C82.9408 13.28 82.4608 13.12 81.8608 13.12C81.3008 13.12 80.8008 13.2733 80.3608 13.58C79.9341 13.8733 79.6208 14.2667 79.4208 14.76L77.2808 13.72C77.4941 13.1467 77.8274 12.6533 78.2808 12.24C78.7474 11.8133 79.2941 11.48 79.9208 11.24C80.5474 11 81.2274 10.88 81.9608 10.88C82.8541 10.88 83.6408 11.0467 84.3208 11.38C85.0008 11.7 85.5274 12.1533 85.9008 12.74C86.2874 13.3133 86.4808 13.9867 86.4808 14.76V22H84.0008V20.14L84.5608 20.1C84.2808 20.5667 83.9474 20.96 83.5608 21.28C83.1741 21.5867 82.7341 21.8267 82.2408 22C81.7474 22.16 81.2008 22.24 80.6008 22.24Z" fill="#0F9D58"/>
<path d="M45.4681 43V28.1H50.3281C51.9015 28.1 53.2681 28.42 54.4281 29.06C55.6015 29.6867 56.5081 30.56 57.1481 31.68C57.7881 32.7867 58.1081 34.0733 58.1081 35.54C58.1081 36.9933 57.7881 38.2867 57.1481 39.42C56.5081 40.54 55.6015 41.42 54.4281 42.06C53.2681 42.6867 51.9015 43 50.3281 43H45.4681ZM48.1881 40.6H50.3881C51.4015 40.6 52.2748 40.3933 53.0081 39.98C53.7548 39.5533 54.3348 38.9667 54.7481 38.22C55.1615 37.46 55.3681 36.5667 55.3681 35.54C55.3681 34.5 55.1615 33.6067 54.7481 32.86C54.3348 32.1133 53.7548 31.5333 53.0081 31.12C52.2748 30.7067 51.4015 30.5 50.3881 30.5H48.1881V40.6ZM59.4528 43V27.86H62.0728V34.26L61.7128 33.88C61.9661 33.2267 62.3795 32.7333 62.9528 32.4C63.5395 32.0533 64.2195 31.88 64.9928 31.88C65.7928 31.88 66.4995 32.0533 67.1128 32.4C67.7395 32.7467 68.2261 33.2333 68.5728 33.86C68.9195 34.4733 69.0928 35.1867 69.0928 36V43H66.4728V36.62C66.4728 36.14 66.3795 35.7267 66.1928 35.38C66.0061 35.0333 65.7461 34.7667 65.4128 34.58C65.0928 34.38 64.7128 34.28 64.2728 34.28C63.8461 34.28 63.4661 34.38 63.1328 34.58C62.7995 34.7667 62.5395 35.0333 62.3528 35.38C62.1661 35.7267 62.0728 36.14 62.0728 36.62V43H59.4528ZM74.0083 43.24C73.2483 43.24 72.5883 43.1133 72.0283 42.86C71.4683 42.6067 71.0349 42.2467 70.7283 41.78C70.4216 41.3 70.2683 40.7467 70.2683 40.12C70.2683 39.52 70.4016 38.9867 70.6683 38.52C70.9349 38.04 71.3483 37.64 71.9083 37.32C72.4683 37 73.1749 36.7733 74.0283 36.64L77.5883 36.06V38.06L74.5283 38.58C74.0083 38.6733 73.6216 38.84 73.3683 39.08C73.1149 39.32 72.9883 39.6333 72.9883 40.02C72.9883 40.3933 73.1283 40.6933 73.4083 40.92C73.7016 41.1333 74.0616 41.24 74.4883 41.24C75.0349 41.24 75.5149 41.1267 75.9283 40.9C76.3549 40.66 76.6816 40.3333 76.9083 39.92C77.1483 39.5067 77.2683 39.0533 77.2683 38.56V35.76C77.2683 35.2933 77.0816 34.9067 76.7083 34.6C76.3483 34.28 75.8683 34.12 75.2683 34.12C74.7083 34.12 74.2083 34.2733 73.7683 34.58C73.3416 34.8733 73.0283 35.2667 72.8283 35.76L70.6883 34.72C70.9016 34.1467 71.2349 33.6533 71.6883 33.24C72.1549 32.8133 72.7016 32.48 73.3283 32.24C73.9549 32 74.6349 31.88 75.3683 31.88C76.2616 31.88 77.0483 32.0467 77.7283 32.38C78.4083 32.7 78.9349 33.1533 79.3083 33.74C79.6949 34.3133 79.8883 34.9867 79.8883 35.76V43H77.4083V41.14L77.9683 41.1C77.6883 41.5667 77.3549 41.96 76.9683 42.28C76.5816 42.5867 76.1416 42.8267 75.6483 43C75.1549 43.16 74.6083 43.24 74.0083 43.24ZM81.7098 43V32.12H84.1698V34.54L83.9698 34.18C84.2232 33.3667 84.6165 32.8 85.1498 32.48C85.6965 32.16 86.3498 32 87.1098 32H87.7498V34.32H86.8098C86.0632 34.32 85.4632 34.5533 85.0098 35.02C84.5565 35.4733 84.3298 36.1133 84.3298 36.94V43H81.7098ZM91.8903 43.24C91.1303 43.24 90.4703 43.1133 89.9103 42.86C89.3503 42.6067 88.917 42.2467 88.6103 41.78C88.3036 41.3 88.1503 40.7467 88.1503 40.12C88.1503 39.52 88.2836 38.9867 88.5503 38.52C88.817 38.04 89.2303 37.64 89.7903 37.32C90.3503 37 91.057 36.7733 91.9103 36.64L95.4703 36.06V38.06L92.4103 38.58C91.8903 38.6733 91.5036 38.84 91.2503 39.08C90.997 39.32 90.8703 39.6333 90.8703 40.02C90.8703 40.3933 91.0103 40.6933 91.2903 40.92C91.5836 41.1333 91.9436 41.24 92.3703 41.24C92.917 41.24 93.397 41.1267 93.8103 40.9C94.237 40.66 94.5636 40.3333 94.7903 39.92C95.0303 39.5067 95.1503 39.0533 95.1503 38.56V35.76C95.1503 35.2933 94.9636 34.9067 94.5903 34.6C94.2303 34.28 93.7503 34.12 93.1503 34.12C92.5903 34.12 92.0903 34.2733 91.6503 34.58C91.2236 34.8733 90.9103 35.2667 90.7103 35.76L88.5703 34.72C88.7836 34.1467 89.117 33.6533 89.5703 33.24C90.037 32.8133 90.5836 32.48 91.2103 32.24C91.837 32 92.517 31.88 93.2503 31.88C94.1436 31.88 94.9303 32.0467 95.6103 32.38C96.2903 32.7 96.817 33.1533 97.1903 33.74C97.577 34.3133 97.7703 34.9867 97.7703 35.76V43H95.2903V41.14L95.8503 41.1C95.5703 41.5667 95.237 41.96 94.8503 42.28C94.4636 42.5867 94.0236 42.8267 93.5303 43C93.037 43.16 92.4903 43.24 91.8903 43.24Z" fill="#0F9D58"/>
</svg>
