<svg width="24" height="24" viewBox="0 0 24 24" fill="none" xmlns="http://www.w3.org/2000/svg">
<path d="M10.8618 18.2156L9.48464 21.6739C9.38902 21.968 9.73331 22.1634 9.90544 21.8107L11.2443 18.3915C12.8128 20.1314 14.7446 20.5026 16.3322 19.7787C18.4936 18.6855 19.3352 15.7547 19.2395 13.8585C19.2219 13.5082 19.01 13.3066 18.4171 13.3505C16.6439 13.4819 15.8488 13.0224 14.5916 11.7679C15.955 12.3732 16.6181 12.5877 17.6137 12.6862C19.163 12.8394 19.7358 12.0677 19.7368 11.0254C19.6249 8.37757 19.2395 7.58758 18.3214 7.80154C17.191 8.12814 16.5786 8.04226 15.5288 7.35215C16.246 7.33471 16.6828 7.29544 17.5372 7.00045C17.9771 6.82557 18.1389 6.51709 17.9389 6.08213C17.319 4.67832 17.018 3.85658 16.5617 2.33072C16.447 1.94092 15.9891 1.88779 15.5097 2.21349C13.5396 3.62027 12.8511 4.13593 12.2772 4.47997C11.4548 4.9489 10.4601 5.65229 10.135 6.16029C9.58029 7.00045 10.4219 7.93831 12.0094 8.46585C11.0531 8.8957 10.5279 8.64834 9.17861 7.35215C8.94909 7.1763 8.62393 7.23492 8.2605 7.35215C7.74408 7.528 6.82597 8.40724 6.53905 9.56001C6.23303 11.2599 7.70582 11.1231 9.59941 11.846C9.06386 12.4908 7.82059 12.354 6.32865 11.4748C6.13739 11.3771 5.85048 11.4243 5.71658 11.5725C5.25754 12.0805 4.64546 13.6826 5.25752 15.1285C6.27127 17.141 8.4709 18.7431 10.8618 18.2156Z" fill="#0A2540"/>
</svg>
