<svg width="18" height="24" viewBox="0 0 18 24" fill="none" xmlns="http://www.w3.org/2000/svg">
<path d="M7.13747 19.4587L5.46061 23.6087C5.34417 23.9616 5.76339 24.1961 5.97298 23.7729L7.60326 19.6697C9.51304 21.7576 11.8653 22.2031 13.7983 21.3344C16.4301 20.0226 17.4549 16.5057 17.3384 14.2302C17.3169 13.8099 17.0589 13.5679 16.3369 13.6206C14.1779 13.7782 13.2097 13.2269 11.679 11.7214C13.3391 12.4479 14.1465 12.7053 15.3588 12.8234C17.2452 13.0072 17.9427 12.0812 17.9439 10.8305C17.8076 7.65309 17.3384 6.7051 16.2205 6.96185C14.844 7.35377 14.0983 7.25072 12.8202 6.42258C13.6935 6.40165 14.2253 6.35453 15.2656 6.00055C15.8013 5.79069 15.9983 5.42051 15.7547 4.89856C15 3.21399 14.6334 2.2279 14.0778 0.396867C13.9381 -0.0708924 13.3806 -0.134652 12.7969 0.25619C10.3981 1.94433 9.55964 2.56312 8.86091 2.97596C7.85947 3.53868 6.6484 4.38274 6.25246 4.99235C5.57707 6.00054 6.60182 7.12597 8.53486 7.75902C7.37038 8.27484 6.73096 7.97801 5.08797 6.42258C4.80851 6.21156 4.41258 6.2819 3.97006 6.42258C3.34125 6.6336 2.22334 7.68868 1.87398 9.07201C1.50136 11.1118 3.29467 10.9477 5.60035 11.8152C4.94825 12.589 3.43441 12.4248 1.61779 11.3698C1.38491 11.2525 1.03556 11.3092 0.872521 11.487C0.313582 12.0966 -0.431691 14.0192 0.313566 15.7542C1.54792 18.1692 4.22625 20.0918 7.13747 19.4587Z" fill="#0A2540"/>
</svg>
